<svg width="87" height="31" viewBox="0 0 87 31" fill="none" xmlns="http://www.w3.org/2000/svg">
<path d="M11.5 16.684C11.5 14.74 11.044 13.24 10.132 12.184C9.22 11.104 8.032 10.564 6.568 10.564C5.752 10.564 5.104 10.6 4.624 10.672C4.168 10.744 3.808 10.828 3.544 10.924V21.472C3.88 21.784 4.372 22.072 5.02 22.336C5.668 22.6 6.34 22.732 7.036 22.732C7.828 22.732 8.5 22.576 9.052 22.264C9.628 21.952 10.096 21.532 10.456 21.004C10.816 20.452 11.08 19.816 11.248 19.096C11.416 18.352 11.5 17.548 11.5 16.684ZM14.56 16.684C14.56 17.956 14.392 19.132 14.056 20.212C13.744 21.268 13.276 22.18 12.652 22.948C12.052 23.716 11.308 24.316 10.42 24.748C9.532 25.18 8.524 25.396 7.396 25.396C6.508 25.396 5.728 25.288 5.056 25.072C4.384 24.856 3.88 24.616 3.544 24.352V30.94H0.556V8.8C1.204 8.608 2.032 8.416 3.04 8.224C4.072 8.032 5.248 7.936 6.568 7.936C7.768 7.936 8.86 8.14 9.844 8.548C10.828 8.956 11.668 9.544 12.364 10.312C13.06 11.056 13.6 11.968 13.984 13.048C14.368 14.128 14.56 15.34 14.56 16.684ZM19.852 25V9.196C22.3 8.356 24.772 7.936 27.268 7.936C28.036 7.936 28.768 7.972 29.464 8.044C30.16 8.092 30.928 8.212 31.768 8.404L31.228 11.032C30.46 10.816 29.776 10.684 29.176 10.636C28.6 10.564 27.964 10.528 27.268 10.528C25.804 10.528 24.316 10.732 22.804 11.14V25H19.852ZM64.42 16.432C64.42 14.848 64.156 13.636 63.628 12.796C63.124 11.956 62.344 11.536 61.288 11.536C60.808 11.536 60.328 11.608 59.848 11.752C59.392 11.872 58.996 12.028 58.66 12.22V21.4C58.996 21.472 59.344 21.52 59.704 21.544C60.088 21.568 60.412 21.58 60.676 21.58C61.828 21.58 62.74 21.196 63.412 20.428C64.084 19.636 64.42 18.304 64.42 16.432ZM68.92 16.54C68.92 17.884 68.74 19.108 68.38 20.212C68.02 21.292 67.492 22.216 66.796 22.984C66.1 23.752 65.248 24.352 64.24 24.784C63.232 25.192 62.08 25.396 60.784 25.396C59.632 25.396 58.456 25.312 57.256 25.144C56.056 24.976 55.048 24.76 54.232 24.496V0.771999L58.66 0.0159998V8.476C59.284 8.188 59.884 7.996 60.46 7.9C61.036 7.78 61.612 7.72 62.188 7.72C63.292 7.72 64.264 7.936 65.104 8.368C65.944 8.776 66.64 9.376 67.192 10.168C67.768 10.936 68.2 11.86 68.488 12.94C68.776 14.02 68.92 15.22 68.92 16.54ZM71.116 16.684C71.116 15.196 71.344 13.888 71.8 12.76C72.256 11.632 72.856 10.696 73.6 9.952C74.344 9.184 75.196 8.608 76.156 8.224C77.116 7.84 78.1 7.648 79.108 7.648C81.604 7.648 83.5 8.392 84.796 9.88C86.092 11.344 86.74 13.492 86.74 16.324C86.74 16.612 86.728 16.912 86.704 17.224C86.704 17.536 86.692 17.788 86.668 17.98H75.688C75.688 19.084 76.144 19.96 77.056 20.608C77.968 21.232 79.144 21.544 80.584 21.544C81.472 21.544 82.312 21.448 83.104 21.256C83.92 21.064 84.604 20.872 85.156 20.68L85.768 24.46C85 24.724 84.184 24.94 83.32 25.108C82.456 25.3 81.484 25.396 80.404 25.396C78.964 25.396 77.668 25.216 76.516 24.856C75.388 24.472 74.416 23.92 73.6 23.2C72.808 22.456 72.196 21.544 71.764 20.464C71.332 19.384 71.116 18.124 71.116 16.684ZM82.456 14.92C82.456 14.464 82.396 14.032 82.276 13.624C82.156 13.192 81.964 12.808 81.7 12.472C81.436 12.136 81.1 11.872 80.692 11.68C80.284 11.464 79.78 11.356 79.18 11.356C78.604 11.356 78.1 11.452 77.668 11.644C77.26 11.836 76.912 12.1 76.624 12.436C76.36 12.772 76.144 13.156 75.976 13.588C75.832 14.02 75.736 14.464 75.688 14.92H82.456Z" fill="white"/>
<path d="M50.992 16.504C50.992 17.848 50.8 19.072 50.416 20.176C50.032 21.256 49.492 22.192 48.796 22.984C48.1 23.776 47.26 24.388 46.276 24.82C45.316 25.252 44.236 25.468 43.036 25.468C41.836 25.468 40.744 25.252 39.76 24.82C38.8 24.388 37.96 23.776 37.24 22.984C36.544 22.192 36.004 21.256 35.62 20.176C35.236 19.072 35.044 17.848 35.044 16.504C35.044 15.184 35.236 13.984 35.62 12.904C36.028 11.8 36.58 10.864 37.276 10.096C37.996 9.304 38.848 8.704 39.832 8.296C40.816 7.864 41.884 7.648 43.036 7.648C44.212 7.648 45.28 7.864 46.24 8.296C47.224 8.704 48.064 9.304 48.76 10.096C49.48 10.864 50.032 11.8 50.416 12.904C50.8 13.984 50.992 15.184 50.992 16.504ZM39.544 16.54C39.544 18.052 39.808 19.276 40.336 20.212C40.888 21.148 41.764 21.616 42.964 21.616C44.116 21.616 44.98 21.148 45.556 20.212C46.156 19.276 46.456 18.052 46.456 16.54C46.456 15.028 46.18 13.816 45.628 12.904C45.1 11.968 44.236 11.5 43.036 11.5C41.884 11.5 41.008 11.968 40.408 12.904C39.832 13.816 39.544 15.028 39.544 16.54Z" fill="#8900CA"/>
</svg>
